Coordinates
version=1
nRows=26
nColumns=30
inDegrees=yes

Units are S.I. units (second, meters, Newtons, ...)
Angles are in degrees.

endheader
time	floatyaw	floatroll	floatpitch	floatx	floaty	floatz	pro_sup_l	deviation_l	flexion_l	cmc_flexion_l	cmc_abduction_l	mp_flexion_l	ip_flexion_l	2mcp_flexion_l	2mcp_abduction_l	2pm_flexion_l	2md_flexion_l	3mcp_flexion_l	3mcp_abduction_l	3pm_flexion_l	3md_flexion_l	4mcp_flexion_l	4mcp_abduction_l	4pm_flexion_l	4md_flexion_l	5mcp_flexion_l	5mcp_abduction_l	5pm_flexion_l	5md_flexion_l
0.005000	-160.147433	-5.066637	-73.570646	-0.070779	-0.130031	-0.131609	26.594269	-30.169778	-12.518057	7.488939	5.706097	-36.566269	-56.892503	64.407030	16.735368	67.460989	67.730367	68.582373	5.405227	87.567369	53.639291	56.531247	-5.956918	96.681752	70.283963	18.711144	-13.051312	92.412494	74.326972
0.015000	-160.147433	-5.066637	-73.570646	-0.070594	-0.125826	-0.130457	24.184109	-30.879384	-12.394708	6.077420	4.467515	-36.443048	-56.483092	65.450453	16.571039	67.447132	69.054963	69.575475	5.135762	89.074605	53.876178	57.994363	-5.875248	98.509149	71.376742	18.629418	-12.564237	93.496372	74.355038
0.025000	-160.147433	-5.066637	-73.570646	-0.070052	-0.121454	-0.129100	22.384359	-30.924004	-11.910921	5.093748	2.446209	-36.156078	-55.820286	65.686739	16.456987	67.372456	69.959009	69.802553	4.948734	89.619174	53.942216	58.709031	-5.837376	99.043134	71.953221	18.241667	-12.248625	94.096907	74.321084
0.035000	-160.147433	-5.066637	-73.570646	-0.069284	-0.117387	-0.127742	21.227351	-30.579929	-11.177179	4.480444	-0.008255	-35.901744	-55.207794	65.485591	16.430647	67.315579	70.815806	69.621444	4.846806	89.559897	54.092651	58.783421	-5.859322	98.797097	72.351000	17.605944	-12.091054	94.195265	74.301850
0.045000	-160.147433	-5.066637	-73.570646	-0.068386	-0.114166	-0.126492	20.592515	-30.087617	-10.295644	4.191369	-2.394214	-35.784199	-54.860594	65.062840	16.463545	67.244689	71.778670	69.212064	4.804344	89.208938	54.452623	58.322964	-5.932206	98.245213	72.773668	16.757469	-12.026290	93.902783	74.269492
0.055000	-160.147433	-5.066637	-73.570646	-0.067418	-0.112200	-0.125425	20.217428	-29.574752	-9.402456	4.199608	-4.244718	-35.799202	-54.839641	64.486991	16.504642	67.082180	72.781940	68.609158	4.791301	88.776145	55.024484	57.439976	-6.030121	97.715618	73.271115	15.731414	-11.990721	93.425631	74.183767
0.065000	-160.147433	-5.066637	-73.570646	-0.066416	-0.111602	-0.124611	19.806949	-29.055119	-8.659901	4.476133	-5.304795	-35.868237	-55.056581	63.745422	16.515162	66.780218	73.645338	67.786417	4.789333	88.364889	55.733794	56.254867	-6.122531	97.362517	73.788085	14.581507	-11.954937	92.961292	74.047134
0.075000	-160.147433	-5.066637	-73.570646	-0.065412	-0.112142	-0.124103	19.170444	-28.487714	-8.192810	4.960686	-5.600816	-35.898379	-55.340839	62.824250	16.483011	66.360147	74.206790	66.737776	4.794366	87.999052	56.480779	54.890031	-6.186582	97.195758	74.236851	13.382396	-11.924420	92.610084	73.903110
0.085000	-160.147433	-5.066637	-73.570646	-0.064443	-0.113358	-0.123891	18.296158	-27.847576	-8.025002	5.553136	-5.375583	-35.834871	-55.531932	61.765369	16.418987	65.900739	74.409516	65.523234	4.809417	87.662361	57.175666	53.467437	-6.214258	97.141766	74.553647	12.219985	-11.918741	92.362732	73.800602
0.095000	-160.147433	-5.066637	-73.570646	-0.063561	-0.114739	-0.123897	17.323969	-27.163127	-8.070610	6.137637	-4.946959	-35.681735	-55.549119	60.677805	16.344092	65.495336	74.311363	64.268544	4.836106	87.334081	57.754085	52.108846	-6.211904	97.109599	74.720894	11.176890	-11.949404	92.154592	73.760977
0.105000	-160.147433	-5.066637	-73.570646	-0.062816	-0.115899	-0.123996	16.448798	-26.505536	-8.183965	6.623971	-4.576874	-35.485922	-55.407008	59.699758	16.277143	65.208917	74.034362	63.124223	4.871017	87.008132	58.180132	50.924933	-6.193794	97.037287	74.760058	10.315303	-12.011005	91.930061	73.770159
0.115000	-160.147433	-5.066637	-73.570646	-0.062239	-0.116660	-0.124063	15.819686	-25.947671	-8.229286	6.975616	-4.404411	-35.301480	-55.180074	58.934438	16.227869	65.055075	73.698752	62.205547	4.907576	86.691952	58.445513	49.988472	-6.174127	96.905548	74.711342	9.660252	-12.086858	91.671596	73.794307
0.125000	-160.147433	-5.066637	-73.570646	-0.061824	-0.117049	-0.124017	15.484297	-25.523722	-8.129594	7.206756	-4.445583	-35.158572	-54.947227	58.400339	16.196189	64.997385	73.378912	61.546006	4.940254	86.393404	58.567502	49.307486	-6.161505	96.724726	74.614931	9.191599	-12.160472	91.389561	73.802910
0.135000	-160.147433	-5.066637	-73.570646	-0.061528	-0.117213	-0.123834	15.391549	-25.213044	-7.878427	7.355858	-4.632640	-35.053496	-54.751034	58.026434	16.175397	64.969434	73.093830	61.089432	4.967555	86.108955	58.583694	48.821008	-6.157582	96.512616	74.500410	8.852315	-12.223616	91.097677	73.783331
0.145000	-160.147433	-5.066637	-73.570646	-0.061287	-0.117333	-0.123545	15.434436	-24.953459	-7.521125	7.456461	-4.863702	-34.959452	-54.588073	57.691794	16.156379	64.902912	72.823362	60.722479	4.992234	85.821860	58.541895	48.425213	-6.159000	96.278957	74.383913	8.571017	-12.277408	90.798152	73.741149
0.155000	-160.147433	-5.066637	-73.570646	-0.061038	-0.117542	-0.123205	15.503302	-24.672409	-7.122495	7.520713	-5.044526	-34.846497	-54.425255	57.282610	16.131019	64.752320	72.533531	60.326827	5.019265	85.510355	58.487142	48.016799	-6.160563	96.022615	74.269972	8.287573	-12.328404	90.483712	73.690997
0.165000	-160.147433	-5.066637	-73.570646	-0.060742	-0.117899	-0.122870	15.524878	-24.317507	-6.736911	7.539865	-5.114656	-34.698061	-54.225760	56.735092	16.094264	64.507624	72.196993	59.823994	5.053067	85.159492	58.450415	47.530975	-6.157919	95.738196	74.155261	7.969734	-12.383528	90.149210	73.646264
0.175000	-160.147433	-5.066637	-73.570646	-0.060394	-0.118395	-0.122572	15.475933	-23.872629	-6.391183	7.497782	-5.056590	-34.516913	-53.969197	56.047675	16.044890	64.191698	71.802317	59.195022	5.095425	84.768983	58.443221	46.957096	-6.148979	95.424636	74.032582	7.615714	-12.446538	89.800949	73.613247
0.185000	-160.147433	-5.066637	-73.570646	-0.060011	-0.118977	-0.122313	15.374012	-23.356179	-6.083503	7.388502	-4.890362	-34.320519	-53.658505	55.265731	15.985086	63.845600	71.353249	58.473029	5.144898	84.352799	58.459534	46.329035	-6.134130	95.089338	73.894418	7.245604	-12.516917	89.456080	73.590838
0.195000	-160.147433	-5.066637	-73.570646	-0.059624	-0.119584	-0.122077	15.256218	-22.807030	-5.794986	7.227214	-4.658330	-34.130708	-53.314762	54.453713	15.919173	63.509526	70.863244	57.718822	5.197686	83.931696	58.483328	45.700066	-6.115597	94.745845	73.735602	6.888399	-12.590924	89.132925	73.573562
0.205000	-160.147433	-5.066637	-73.570646	-0.059261	-0.120166	-0.121839	15.158465	-22.266800	-5.505539	7.047814	-4.406202	-33.963949	-52.966249	53.670103	15.852073	63.208088	70.350481	56.993722	5.249343	83.523776	58.497681	45.117210	-6.096337	94.407715	73.554537	6.570565	-12.663943	88.839976	73.554911
0.215000	-160.147433	-5.066637	-73.570646	-0.058939	-0.120695	-0.121585	15.103255	-21.765844	-5.205224	6.888175	-4.166737	-33.826532	-52.638223	52.953651	15.788124	62.945156	69.835961	56.340466	5.296416	83.138667	58.491526	44.606392	-6.078882	94.083322	73.353011	6.308871	-12.732789	88.571874	73.529087
0.225000	-160.147433	-5.066637	-73.570646	-0.058660	-0.121161	-0.121312	15.097392	-21.317029	-4.896381	6.771293	-3.951616	-33.715458	-52.346672	52.321246	15.730470	62.708568	69.343810	55.776385	5.337303	82.777997	58.462288	44.171210	-6.064516	93.774969	73.135787	6.107511	-12.796666	88.314768	73.491552
0.235000	-160.147433	-5.066637	-73.570646	-0.058418	-0.121570	-0.121031	15.135979	-20.917648	-4.588077	6.693211	-3.753729	-33.623016	-52.096226	51.772630	15.680842	62.480930	68.900164	55.296939	5.372192	82.440535	58.415049	43.800592	-6.053113	93.482127	72.911000	5.958526	-12.856326	88.056311	73.439883
0.245000	-160.147433	-5.066637	-73.570646	-0.058201	-0.121933	-0.120752	15.207694	-20.556498	-4.288686	6.625592	-3.557195	-33.541886	-51.881374	51.296749	15.639555	62.250679	68.527327	54.884505	5.402393	82.127455	58.359716	43.478260	-6.043656	93.205557	72.690524	5.845050	-12.912371	87.792997	73.375284
0.255000	-160.147433	-5.066637	-73.570646	-0.058003	-0.122262	-0.120486	15.298474	-20.221616	-4.002148	6.532450	-3.348825	-33.468181	-51.690281	50.877112	15.605701	62.018066	68.233979	54.517603	5.429540	81.843700	58.307084	43.189275	-6.035119	92.948943	72.488002	5.747143	-12.964322	87.530652	73.303139
